<svg width="83" height="83" viewBox="0 0 83 83" fill="none" xmlns="http://www.w3.org/2000/svg">
<rect x="0.783325" y="0.0200195" width="82" height="82" rx="41" fill="#E0AF4A"/>
<path d="M48.7833 41.02H43.7833V34.02C43.7833 33.7284 43.6844 33.4888 43.4865 33.3013C43.2885 33.1138 43.0542 33.02 42.7833 33.02C42.5125 33.02 42.2781 33.1138 42.0802 33.3013C41.8823 33.4888 41.7833 33.7284 41.7833 34.02V42.02C41.7833 42.2909 41.8823 42.5252 42.0802 42.7231C42.2781 42.9211 42.5125 43.02 42.7833 43.02H48.7833C49.0542 43.02 49.2885 42.9211 49.4865 42.7231C49.6844 42.5252 49.7833 42.2909 49.7833 42.02C49.7833 41.7492 49.6844 41.5148 49.4865 41.3169C49.2885 41.119 49.0542 41.02 48.7833 41.02ZM42.7833 27.02C40.7208 27.02 38.7729 27.4159 36.9396 28.2075C35.1271 28.9784 33.5385 30.0461 32.174 31.4106C30.8094 32.7752 29.7417 34.3638 28.9708 36.1763C28.1792 38.0096 27.7833 39.9575 27.7833 42.02C27.7833 44.0825 28.1792 46.0304 28.9708 47.8638C29.7417 49.6763 30.8094 51.2648 32.174 52.6294C33.5385 53.994 35.1271 55.0617 36.9396 55.8325C38.7729 56.6242 40.7208 57.02 42.7833 57.02C44.8458 57.02 46.7937 56.6242 48.6271 55.8325C50.4396 55.0617 52.0281 53.994 53.3927 52.6294C54.7573 51.2648 55.825 49.6763 56.5958 47.8638C57.3875 46.0304 57.7833 44.0825 57.7833 42.02C57.7833 39.9575 57.3875 38.0096 56.5958 36.1763C55.825 34.3638 54.7573 32.7752 53.3927 31.4106C52.0281 30.0461 50.4396 28.9784 48.6271 28.2075C46.7937 27.4159 44.8458 27.02 42.7833 27.02ZM42.7833 55.02C40.9917 55.02 39.3042 54.6763 37.7208 53.9888C36.1375 53.3221 34.7573 52.4002 33.5802 51.2231C32.4031 50.0461 31.4812 48.6659 30.8146 47.0825C30.1271 45.4992 29.7833 43.8117 29.7833 42.02C29.7833 40.2284 30.1271 38.5409 30.8146 36.9575C31.4812 35.3742 32.4031 33.994 33.5802 32.8169C34.7573 31.6398 36.1375 30.7179 37.7208 30.0513C39.3042 29.3638 40.9917 29.02 42.7833 29.02C44.575 29.02 46.2625 29.3638 47.8458 30.0513C49.4292 30.7179 50.8094 31.6398 51.9865 32.8169C53.1635 33.994 54.0854 35.3742 54.7521 36.9575C55.4396 38.5409 55.7833 40.2284 55.7833 42.02C55.7833 43.8117 55.4396 45.4992 54.7521 47.0825C54.0854 48.6659 53.1635 50.0461 51.9865 51.2231C50.8094 52.4002 49.4292 53.3221 47.8458 53.9888C46.2625 54.6763 44.575 55.02 42.7833 55.02Z" fill="white"/>
</svg>
