<svg width="82" height="83" viewBox="0 0 82 83" fill="none" xmlns="http://www.w3.org/2000/svg">
<rect y="0.0200195" width="82" height="82" rx="41" fill="#E0AF4A"/>
<path d="M55.9688 49.02H55V31.02C55 30.4784 54.8021 30.0096 54.4062 29.6138C54.0104 29.2179 53.5417 29.02 53 29.02H29C28.4583 29.02 27.9896 29.2179 27.5938 29.6138C27.1979 30.0096 27 30.4784 27 31.02V49.02H26.0312C25.7396 49.02 25.4948 49.119 25.2969 49.3169C25.099 49.5148 25 49.7492 25 50.02C25 50.2909 25.099 50.5252 25.2969 50.7231C25.4948 50.9211 25.7396 51.02 26.0312 51.02H55.9688C56.2604 51.02 56.5052 50.9211 56.7031 50.7231C56.901 50.5252 57 50.2909 57 50.02C57 49.7492 56.901 49.5148 56.7031 49.3169C56.5052 49.119 56.2604 49.02 55.9688 49.02ZM53 31.02V46.9263H29V31.02H53Z" fill="white"/>
</svg>
