<svg width="83" height="83" viewBox="0 0 83 83" fill="none" xmlns="http://www.w3.org/2000/svg">
<rect x="0.56665" y="0.0200195" width="82" height="82" rx="41" fill="#E0AF4A"/>
<path d="M29.5667 40.02C29.5667 40.2909 29.6656 40.5252 29.8635 40.7231C30.0614 40.9211 30.2958 41.02 30.5667 41.02H50.1604L45.8479 45.3013C45.6604 45.5096 45.5667 45.7492 45.5667 46.02C45.5667 46.2909 45.6604 46.5304 45.8479 46.7388C46.0562 46.9263 46.2958 47.02 46.5667 47.02C46.8375 47.02 47.0771 46.9263 47.2854 46.7388L53.2854 40.7388C53.3271 40.6763 53.3635 40.619 53.3948 40.5669C53.426 40.5148 53.4625 40.4575 53.5042 40.395C53.525 40.3325 53.5406 40.27 53.551 40.2075C53.5614 40.145 53.5667 40.0825 53.5667 40.02C53.5667 39.9575 53.5614 39.895 53.551 39.8325C53.5406 39.77 53.525 39.7075 53.5042 39.645C53.4625 39.5825 53.426 39.5252 53.3948 39.4731C53.3635 39.4211 53.3271 39.3638 53.2854 39.3013L47.2854 33.3013C47.0771 33.1138 46.8375 33.02 46.5667 33.02C46.2958 33.02 46.0562 33.1138 45.8479 33.3013C45.6604 33.5096 45.5667 33.7492 45.5667 34.02C45.5667 34.2909 45.6604 34.5304 45.8479 34.7388L50.1604 39.02H30.5667C30.2958 39.02 30.0614 39.119 29.8635 39.3169C29.6656 39.5148 29.5667 39.7492 29.5667 40.02Z" fill="white"/>
</svg>
